<?xml version="1.0" standalone="no"?><!DOCTYPE svg PUBLIC "-//W3C//DTD SVG 1.1//EN" "http://www.w3.org/Graphics/SVG/1.1/DTD/svg11.dtd"><svg t="1581059398551" class="icon" viewBox="0 0 1024 1024" version="1.1" xmlns="http://www.w3.org/2000/svg" p-id="1535" xmlns:xlink="http://www.w3.org/1999/xlink" width="200" height="200"><defs><style type="text/css"></style></defs><path d="M512 320c105.87 0 192 86.13 192 192s-86.13 192-192 192-192-86.13-192-192 86.13-192 192-192m0-256C264.58 64 64 264.58 64 512s200.58 448 448 448 448-200.58 448-448S759.42 64 512 64z" fill="#D39842" p-id="1536"></path><path d="M512 64C264.58 64 64 264.58 64 512c0 105.88 36.94 203.02 98.36 279.69 23.44-13.09 39.7-40.31 39.7-71.69v-64c0-8.8 6.38-16 14.17-16s14.17 7.2 14.17 16v124.05c0 37.11 20.72 72.16 52.57 81.32 46.76 13.45 89.14-26.65 89.14-77.38 0-26.51 19.03-48 42.51-48s42.51 21.49 42.51 48v60.05c0 37.11 20.72 72.16 52.57 81.32 46.76 13.45 89.14-26.65 89.14-77.38v-128c0-8.8 6.38-16 14.17-16s14.17 7.2 14.17 16l1.44 16c7.36 40.51 42.06 70.13 81.17 62.91 35.06-6.47 59.1-43.89 59.1-84.01V608c0-17.67 12.69-32 28.34-32s28.34 14.33 28.34 32v12.05c0 37.11 20.72 72.16 52.57 81.32 14.27 4.1 27.94 2.76 40.31-1.89C944.87 642.39 960 579.03 960 512c0-247.42-200.58-448-448-448z m0 608c-88.22 0-160-71.78-160-160s71.78-160 160-160 160 71.78 160 160-71.78 160-160 160z" fill="#F6D499" p-id="1537"></path><path d="M208 344c-2.05 0-4.09-0.78-5.66-2.34-3.12-3.12-3.12-8.19 0-11.31l32-32c3.12-3.12 8.19-3.12 11.31 0s3.12 8.19 0 11.31l-32 32A7.957 7.957 0 0 1 208 344z" fill="#B99CD3" p-id="1538"></path><path d="M752 280c-2.94 0-5.75-1.62-7.16-4.42l-32-64a7.992 7.992 0 0 1 3.59-10.73c3.84-1.95 8.75-0.38 10.72 3.58l32 64c1.97 3.95 0.38 8.75-3.59 10.73-1.12 0.57-2.34 0.84-3.56 0.84z" fill="#DF7867" p-id="1539"></path><path d="M752 440c-1.22 0-2.44-0.27-3.56-0.84a7.992 7.992 0 0 1-3.59-10.73l32-64c2-3.95 6.88-5.53 10.72-3.58a7.992 7.992 0 0 1 3.59 10.73l-32 64A8.003 8.003 0 0 1 752 440z" fill="#95BD65" p-id="1540"></path><path d="M144 568c-2.05 0-4.09-0.78-5.66-2.34-3.12-3.12-3.12-8.19 0-11.31l32-32c3.12-3.12 8.19-3.12 11.31 0s3.12 8.19 0 11.31l-32 32A7.957 7.957 0 0 1 144 568z" fill="#DF7867" p-id="1541"></path><path d="M400 216c-1.2 0-2.42-0.27-3.58-0.84l-64-32a8.006 8.006 0 0 1-3.58-10.73c2-3.92 6.8-5.53 10.73-3.58l64 32a8.006 8.006 0 0 1 3.58 10.73A8 8 0 0 1 400 216z" fill="#EE71A0" p-id="1542"></path><path d="M560 312a7.98 7.98 0 0 1-5.66-2.34c-3.12-3.12-3.12-8.19 0-11.31l32-32c3.12-3.12 8.19-3.12 11.31 0s3.12 8.19 0 11.31l-32 32A7.94 7.94 0 0 1 560 312z" fill="#B99CD3" p-id="1543"></path><path d="M912 568a7.98 7.98 0 0 1-5.66-2.34l-32-32c-3.12-3.12-3.12-8.19 0-11.31s8.19-3.12 11.31 0l32 32c3.12 3.12 3.12 8.19 0 11.31A7.94 7.94 0 0 1 912 568z" fill="#EE71A0" p-id="1544"></path><path d="M304 472c-2.05 0-4.09-0.78-5.66-2.34l-32-32c-3.12-3.12-3.12-8.19 0-11.31s8.19-3.12 11.31 0l32 32c3.12 3.12 3.12 8.19 0 11.31A7.957 7.957 0 0 1 304 472z" fill="#95BD65" p-id="1545"></path></svg>